<svg xmlns="http://www.w3.org/2000/svg" version="1.1" xmlns:xlink="http://www.w3.org/1999/xlink" xmlns:svgjs="http://svgjs.com/svgjs" width="100%" height="100%" viewBox="0 0 1000 600"><rect width="1000" height="600" x="0" y="0" fill="#ffe066"/><g><circle r="166.66666666666666" cx="319.35866800944007" cy="341.5809050426881" fill="#263238" transform="matrix(0.8186411409810903,0,0,0.8186411409810903,0,20.367783826225022)"/><path d="M375.4026449028035 389.383114154559L375.4026449028035 389.383114154559L377.87517250201154 390.36754643942896Q375.883414158205 397.1212097891176 373.34220523679676 401.65417705433225Q370.7781025413218 406.18714431954703 367.481399075711 409.1633349482234L367.481399075711 409.1633349482234Q364.3449520285675 411.9563753843658 358.98780889695007 414.2686465651066Q353.63066576533265 416.58091774584744 345.22865068283863 416.58091774584744L345.22865068283863 416.58091774584744Q336.48322898934356 416.58091774584744 328.3330454215837 413.6963022134382Q320.18286185382385 410.8116866810288 311.4374401603287 406.6908073490153Q302.69201846683364 402.5699280170019 292.1608823961327 399.0900743588573L292.1608823961327 399.0900743588573Q290.9932999187289 398.76956152192287 290.00886763385904 398.44904868498855Q289.0244353489892 398.10564207398744 288.2002594825865 397.9453856555203L288.2002594825865 397.9453856555203Q285.06381243544297 399.0900743588573 281.44659613289787 399.7539938067927Q277.806486056286 400.41791325472826 274.5097825906753 400.41791325472826L274.5097825906753 400.41791325472826Q271.21307912506455 400.41791325472826 269.08395813685763 399.59373738832556Q266.93194337458397 398.76956152192287 266.93194337458397 397.1212097891176L266.93194337458397 397.1212097891176Q266.93194337458397 393.66424990503964 275.83762148654625 393.66424990503964L275.83762148654625 393.66424990503964Q281.606852551365 393.66424990503964 288.2002594825865 394.9691950268439L288.2002594825865 394.9691950268439Q294.1297469658724 393.3208432940385 298.41088271635306 391.26040362803184Q302.69201846683364 389.19996396202515 307.22498573204837 387.3913558107526Q311.75795299726315 385.58274765948005 318.1911035100174 385.07908463001166L318.1911035100174 385.07908463001166L318.35135992848456 387.7347624217537Q313.4063047300685 388.2155316771553 309.7890884275234 389.61205189522644Q306.1718721249783 391.0314658873644 302.53176204836643 392.6798176201698Q298.91454574582133 394.3281693529752 293.96949054740526 395.7933708932465L293.96949054740526 395.7933708932465Q302.21124921143206 397.4417226260519 311.94110318979705 399.27322455139125Q321.6480633940953 401.0818327026638 330.7139979245248 402.38677782446797Q339.7799324549543 403.71461672033894 346.21308296770854 403.71461672033894L346.21308296770854 403.71461672033894Q358.09495170834714 403.71461672033894 364.91729638023605 400.2576568362611Q371.76253482619165 396.80069695218316 375.4026449028035 389.383114154559ZM313.24604831160127 266.58091006055963L313.24604831160127 266.58091006055963Q328.90538977325224 266.58091006055963 340.6956834176239 273.65508624718257Q352.4859770619956 280.75215620787236 358.98780889695007 294.00765139251547Q365.5125345059713 307.2860403512253 365.5125345059713 326.24208527848697L365.5125345059713 326.24208527848697Q365.5125345059713 344.6944671762804 358.8275524784829 358.54520048665876Q352.1425704509945 372.3959337970371 340.28359548442256 380.1340294315956Q328.4246205178507 387.89501884022087 313.0857918931341 387.89501884022087L313.0857918931341 387.89501884022087Q297.4264504314832 387.89501884022087 285.6361567871115 380.79794887953113Q273.8458631427398 373.7237726929081 267.3440313077853 360.3538086379313Q260.8421994728308 347.0067383570212 260.8421994728308 328.2109498482268L260.8421994728308 328.2109498482268Q260.8421994728308 309.7585679504334 267.59586282251945 295.907834640055Q274.34952617220813 282.0571013296766 286.1398198165798 274.3190056951181Q297.9301134609515 266.58091006055963 313.24604831160127 266.58091006055963ZM312.58212886366584 269.5342069151692L312.58212886366584 269.5342069151692Q301.86784260043095 269.5342069151692 293.96949054740526 276.95178971279336Q286.0482447203128 284.36937251041746 281.67553387356526 297.3959299543932Q277.32571680088444 310.42248739836884 277.32571680088444 327.56992417435794L277.32571680088444 327.56992417435794Q277.32571680088444 345.0378737872815 282.1791969030336 357.9728561349902Q287.0326770051827 370.907838482699 295.36601076547646 377.91333334712175Q303.69934452577024 384.9188282115445 313.7497113410696 384.9188282115445L313.7497113410696 384.9188282115445Q324.46399760430444 384.9188282115445 332.3623496573301 377.50124541392034Q340.28359548442256 370.0836626162963 344.65630633117013 356.98842385012034Q349.0290171779177 343.8702913098777 349.0290171779177 326.9060047264225L349.0290171779177 326.9060047264225Q349.0290171779177 309.25490492096503 344.1526433017018 296.4114976695233Q339.2991631995527 283.5451966440148 331.0574045355259 276.53970177959195Q322.8156458714991 269.5342069151692 312.58212886366584 269.5342069151692Z " fill="#ffffff" transform="matrix(0.8186411409810903,0,0,0.8186411409810903,0,20.367783826225022)"/><path d="M676.6025818425128 391.12013643339134L676.6025818425128 391.12013643339134L678.917198286927 392.0416966844081Q677.0526461511489 398.3640286390582 674.6737348055009 402.6074921204843Q672.2733918261083 406.85095560191047 669.1872365668893 409.6370679887054L669.1872365668893 409.6370679887054Q666.2511027438824 412.25172730554374 661.2361004476514 414.416322313746Q656.2210981514206 416.5809173219481 648.355688567161 416.5809173219481L648.355688567161 416.5809173219481Q640.1688044767327 416.5809173219481 632.5391428636635 413.88053147013153Q624.9094812505944 411.18014561831495 616.7225971601661 407.32245154429114Q608.5357130697378 403.46475747026733 598.6771615472326 400.20714914109175L598.6771615472326 400.20714914109175Q597.5841482262592 399.90710626866763 596.6625879752424 399.60706339624363Q595.7410277242257 399.28558889007496 594.969488909421 399.13556745386296L594.969488909421 399.13556745386296Q592.0333550864138 400.20714914109175 588.6471569547708 400.8286665196844Q585.2395271893831 401.4501838982772 582.1533719301642 401.4501838982772L582.1533719301642 401.4501838982772Q579.0672166709451 401.4501838982772 577.0740747326995 400.6786450834724Q575.0595011607093 399.90710626866763 575.0595011607093 398.3640286390582L575.0595011607093 398.3640286390582Q575.0595011607093 395.12785194362715 583.3964066873496 395.12785194362715L583.3964066873496 395.12785194362715Q588.7971783909829 395.12785194362715 594.969488909421 396.34945506706794L594.969488909421 396.34945506706794Q600.5202820492661 394.8063774374585 604.527997559502 392.8775304004466Q608.5357130697378 390.94868336343467 612.779176551164 389.2555842976132Q617.0226400325901 387.56248523179164 623.0449291148161 387.09098928941097L623.0449291148161 387.09098928941097L623.1949505510281 389.57705880378177Q618.5657176621996 390.0271231124179 615.1795195305565 391.3344527708371Q611.7933213989135 392.6632140630008 608.3856916335258 394.20629169261036Q604.9994935018826 395.7493693222198 600.3702606130541 397.1209938818727L600.3702606130541 397.1209938818727Q608.0856487611018 398.6640715114823 617.1940931025467 400.3786022110483Q626.2811058102471 402.0717012768699 634.7680327730995 403.2933044003108Q643.2549597359517 404.53633915749623 649.2772488181778 404.53633915749623L649.2772488181778 404.53633915749623Q660.400266731613 404.53633915749623 666.7868935874967 401.3001624620651Q673.1949520771251 398.06398576663406 676.6025818425128 391.12013643339134ZM618.4156962259876 276.160853027483L618.4156962259876 276.160853027483Q633.074933707278 276.160853027483 644.1122250857348 282.78322785455714Q655.1495164641917 289.42703431537586 661.2361004476514 301.83595025348563Q667.3441160648557 314.26629782534 667.3441160648557 332.0116905658494L667.3441160648557 332.0116905658494Q667.3441160648557 349.285587363978 661.0860790114394 362.25172577944676Q654.828041958023 375.21786419491553 643.7264556783325 382.4617564005824Q632.6248693986417 389.7270802399939 618.2656747897756 389.7270802399939L618.2656747897756 389.7270802399939Q603.6064373084853 389.7270802399939 592.5691459300283 383.08327377917516Q581.5318545515714 376.460898952101 575.4452705681117 363.94482484526833Q569.358686584652 351.4501823721802 569.358686584652 333.85481106788296L569.358686584652 333.85481106788296Q569.358686584652 316.58091426975426 575.681018539302 303.61477585428554Q582.0033504939522 290.6486374388167 593.040641872409 283.4047452331498Q604.077933250866 276.160853027483 618.4156962259876 276.160853027483ZM617.794178847395 278.9255337805333L617.794178847395 278.9255337805333Q607.7641742549331 278.9255337805333 600.3702606130541 285.86938311377617Q592.9549153374307 292.8132324470189 588.8614732922166 305.007832047683Q584.7894628807471 317.20243164834704 584.7894628807471 333.25472532303473L584.7894628807471 333.25472532303473Q584.7894628807471 349.60706187014665 589.3329692345973 361.7159349358323Q593.8764755884475 373.8248080015181 601.6775902714734 380.38288792735847Q609.4787049544992 386.94096785319886 618.8871921683683 386.94096785319886L618.8871921683683 386.94096785319886Q628.91719676083 386.94096785319886 636.311110402709 379.99711851995613Q643.7264556783325 373.0532691867133 647.8198977235465 360.7943746848155Q651.9133397687607 348.5140485491732 651.9133397687607 332.63320794444206L651.9133397687607 332.63320794444206Q651.9133397687607 316.1094183273736 647.3484017811659 304.0862717966662Q642.8048954273156 292.0416936322142 635.0895072792681 285.4836137063737Q627.3741191312206 278.9255337805333 617.794178847395 278.9255337805333ZM750.0487906851764 306.40088824108045L750.0487906851764 306.40088824108045L750.0487906851764 370.88867417851105Q750.0487906851764 377.8325235117539 752.599155100781 381.15442674216325Q755.1280878826411 384.4763299725726 761.7718943434598 384.4763299725726L761.7718943434598 384.4763299725726L761.7718943434598 387.71250666800364Q756.9926400184193 387.2624423593675 752.2133856933787 387.2624423593675L752.2133856933787 387.2624423593675Q747.7341742407622 387.2624423593675 743.6407321955481 387.71250666800364Q739.547290150334 388.1840026103843 736.161092018691 389.4056057338252L736.161092018691 389.4056057338252L736.161092018691 371.2101486846797Q732.3033979446672 381.2401532771416 725.273822076446 385.48361675856773Q718.2656778419695 389.7270802399939 710.8503325663461 389.7270802399939L710.8503325663461 389.7270802399939Q705.4495608627127 389.7270802399939 701.4418453524769 388.1840026103843Q697.4341298422411 386.64092498077486 694.7980388916582 383.85481259397983L694.7980388916582 383.85481259397983Q691.8619050686513 380.7686573347609 690.7903233814225 375.8393815735083Q689.7187416941936 370.88867417851105 689.7187416941936 363.6447819728442L689.7187416941936 363.6447819728442L689.7187416941936 324.91781979639455Q689.7187416941936 317.9739704631517 687.2326721798228 314.65206723274235Q684.7680342991964 311.33016400233305 677.9742064021657 311.33016400233305L677.9742064021657 311.33016400233305L677.9742064021657 308.093987306902Q682.9249137971628 308.5654832492827 687.5541466859913 308.5654832492827L687.5541466859913 308.5654832492827Q692.0333581386079 308.5654832492827 696.1053685500774 308.0082607719237Q700.1988105952915 307.47246992830924 703.6064403606791 306.40088824108045L703.6064403606791 306.40088824108045L703.6064403606791 367.03098010448736Q703.6064403606791 371.8316660632725 704.2065261055274 375.8393815735083Q704.82804348412 379.84709708374413 707.2926813647463 382.3117349643704Q709.7787508791172 384.77637284499673 715.3295440189626 384.77637284499673L715.3295440189626 384.77637284499673Q724.4379883604075 384.77637284499673 730.2888243726769 376.67521528954677Q736.161092018691 368.5740577340968 736.161092018691 356.8509540758135L736.161092018691 356.8509540758135L736.161092018691 324.91781979639455Q736.161092018691 317.9739704631517 733.6964541380646 314.65206723274235Q731.2103846236937 311.33016400233305 724.4379883604075 311.33016400233305L724.4379883604075 311.33016400233305L724.4379883604075 308.093987306902Q729.3672641216601 308.5654832492827 733.9964970104886 308.5654832492827L733.9964970104886 308.5654832492827Q738.4757084631052 308.5654832492827 742.5691505083192 308.0082607719237Q746.6411609197888 307.47246992830924 750.0487906851764 306.40088824108045ZM807.4427058531522 305.9293922986998L807.4427058531522 305.9293922986998Q817.3226890094021 305.9293922986998 825.1880985936616 310.25858231510415Q833.0535081779212 314.566340697764 837.768467601728 323.8248064754211Q842.4834270255349 333.0832722530782 842.4834270255349 347.9139628043251L842.4834270255349 347.9139628043251Q842.4834270255349 362.72322172182743 837.768467601728 371.8959609645062Q833.0535081779212 381.0901318409295 825.1880985936616 385.3978902235894Q817.3226890094021 389.7270802399939 807.4427058531522 389.7270802399939L807.4427058531522 389.7270802399939Q797.7341757668592 389.7270802399939 789.7830396476213 385.3978902235894Q781.8319035283834 381.0901318409295 777.1169441045766 371.8959609645062Q772.4234163145143 362.72322172182743 772.4234163145143 347.9139628043251L772.4234163145143 347.9139628043251Q772.4234163145143 333.0832722530782 777.1169441045766 323.8248064754211Q781.8319035283834 314.566340697764 789.7830396476213 310.25858231510415Q797.7341757668592 305.9293922986998 807.4427058531522 305.9293922986998ZM807.4427058531522 309.0155475579188L807.4427058531522 309.0155475579188Q798.6557360178759 309.0155475579188 793.0192163430523 318.1239918993637Q787.3826966682287 327.2324362408088 787.3826966682287 347.9139628043251L787.3826966682287 347.9139628043251Q787.3826966682287 368.5740577340968 793.0192163430523 377.6182071743081Q798.6557360178759 386.64092498077486 807.4427058531522 386.64092498077486L807.4427058531522 386.64092498077486Q816.2511073221732 386.64092498077486 821.8661953632524 377.6182071743081Q827.502715038076 368.5740577340968 827.502715038076 347.9139628043251L827.502715038076 347.9139628043251Q827.502715038076 327.2324362408088 821.8661953632524 318.1239918993637Q816.2511073221732 309.0155475579188 807.4427058531522 309.0155475579188ZM879.0457941937824 282.483184982133L879.0457941937824 282.483184982133L879.0457941937824 308.244008743114L901.8919157655008 308.244008743114L901.8919157655008 311.33016400233305L879.0457941937824 311.33016400233305L879.0457941937824 371.0601272484677Q879.0457941937824 378.30401945413456 881.6604535106206 381.2401532771416Q884.2965444612037 384.1762871001485 888.9257773500321 384.1762871001485L888.9257773500321 384.1762871001485Q893.5550102388607 384.1762871001485 896.9412083705037 380.38288792735847Q900.3488381358915 376.610920388313 902.8134760165177 367.65249748308L902.8134760165177 367.65249748308L905.8996312757367 368.4240362978848Q904.3565536461273 377.3824592031178 899.7916156585325 383.55476972155583Q895.2481093046822 389.7270802399939 885.8396220908131 389.7270802399939L885.8396220908131 389.7270802399939Q880.588871823392 389.7270802399939 877.2026736917488 388.41975058157465Q873.7950439263612 387.09098928941097 871.1803846095228 384.6263514087846L871.1803846095228 384.6263514087846Q867.7727548441352 381.0901318409295 866.4654251857158 376.1394244459323Q865.1580955272968 371.2101486846797 865.1580955272968 363.02326459425154L865.1580955272968 363.02326459425154L865.1580955272968 311.33016400233305L850.3488366097944 311.33016400233305L850.3488366097944 308.244008743114L865.1580955272968 308.244008743114L865.1580955272968 284.64777999033527Q869.0157896013205 284.4763269203787 872.5734408029203 284.0262626117426Q876.1096603707754 283.5547666693619 879.0457941937824 282.483184982133ZM946.3196925180081 305.9293922986998L946.3196925180081 305.9293922986998Q959.9073483120695 305.9293922986998 967.5370099251387 314.1805712903617Q975.1881031719525 322.4531819157682 975.1881031719525 339.8771001501089L975.1881031719525 339.8771001501089L920.7088901932391 339.8771001501089L920.5588687570271 336.9409663271019L960.3574126207055 336.9409663271019Q960.6788871268742 329.39703124901104 959.1358094972647 322.98897275938265Q957.5927318676553 316.58091426975426 954.2708286372459 312.72322019573045Q950.9489254068366 308.8655261217067 945.6981751394152 308.8655261217067L945.6981751394152 308.8655261217067Q938.6043043699605 308.8655261217067 933.1392377650935 315.9593968911616Q927.6527395264819 323.0532676606163 926.581157839253 338.48404395671145L926.581157839253 338.48404395671145L927.0312221478893 339.1055613353041Q926.731179275465 341.4201777797185 926.581157839253 344.2062901665134Q926.4097047692964 346.97097091956374 926.4097047692964 349.75708330635865L926.4097047692964 349.75708330635865Q926.4097047692964 360.2585838412012 929.8173345346842 367.80251891929214Q933.2035326663272 375.36788563112754 938.6900309049388 379.3113062401297Q944.1550975098058 383.23329521538716 950.0273651558198 383.23329521538716L950.0273651558198 383.23329521538716Q956.9712144890626 383.23329521538716 962.8434821350764 379.84709708374413Q968.6943181473458 376.460898952101 972.7020336575816 367.80251891929214L972.7020336575816 367.80251891929214L975.7881889168008 369.0455536764775Q974.0950898509792 374.14628250768675 970.2373957769554 378.92553683272735Q966.3797017029316 383.70479115776783 960.5288656906622 386.7052198820085Q954.6565980446483 389.7270802399939 946.9412098966008 389.7270802399939L946.9412098966008 389.7270802399939Q935.8396236169101 389.7270802399939 927.8884874976723 384.6263514087846Q919.9373513784343 379.54705421132 915.6938878970083 370.5029047711087Q911.450424415582 361.480186964642 911.450424415582 349.75708330635865L911.450424415582 349.75708330635865Q911.450424415582 336.1694275122972 915.7796144319865 326.3751708910257Q920.0873728146464 316.58091426975426 927.9527823989059 311.26586910109927Q935.8396236169101 305.9293922986998 946.3196925180081 305.9293922986998ZM1057.1212389774687 266.58091274365734L1057.1212389774687 266.58091274365734L1057.1212389774687 370.73865274229905Q1057.1212389774687 377.6825020755419 1059.671603393073 381.00440530595125Q1062.200536174933 384.3263085363606 1068.8443426357517 384.3263085363606L1068.8443426357517 384.3263085363606L1068.8443426357517 387.56248523179164Q1064.0650883107114 387.09098928941097 1059.2858339856707 387.09098928941097L1059.2858339856707 387.09098928941097Q1054.8066225330545 387.09098928941097 1050.71318048784 387.56248523179164Q1046.619738442626 388.0339811741723 1043.2335403109828 389.2555842976132L1043.2335403109828 389.2555842976132L1043.2335403109828 285.0978442989714Q1043.2335403109828 278.15399496572866 1040.7689024303568 274.8320917353193Q1038.2828329159856 271.5316201386545 1031.5104366526996 271.5316201386545L1031.5104366526996 271.5316201386545L1031.5104366526996 268.27401180947885Q1036.4397124139523 268.7455077518596 1041.0689453027808 268.7455077518596L1041.0689453027808 268.7455077518596Q1045.548156755397 268.7455077518596 1049.6415988006113 268.2097169082451Q1053.7136092120809 267.6739260646307 1057.1212389774687 266.58091274365734ZM1024.7166087556689 305.9293922986998L1024.7166087556689 305.9293922986998Q1031.5104366526996 305.9293922986998 1037.4469991999472 309.1655689941308Q1043.383561747195 312.42317732330645 1045.3981353191853 320.28858690756596L1045.3981353191853 320.28858690756596L1043.383561747195 321.8316645371755Q1041.2189667389928 315.3378795125688 1036.6754603851425 312.42317732330645Q1032.1105223975478 309.4870435002995 1025.9382118791098 309.4870435002995L1025.9382118791098 309.4870435002995Q1016.8511991714092 309.4870435002995 1010.743183554205 318.8955307141685Q1004.6565995707452 328.3040179280376 1004.8066210069572 347.9139628043251L1004.8066210069572 347.9139628043251Q1004.8066210069572 360.4086052774132 1007.2069639863499 368.65978426907515Q1009.5858753319977 376.9109632607371 1014.3008347558047 381.00440530595125Q1018.9943625458669 385.0978473511653 1025.7881904428978 385.0978473511653L1025.7881904428978 385.0978473511653Q1032.2819754675043 385.0978473511653 1037.5112941011812 379.54705421132Q1042.7620443686023 373.9748294377301 1043.8550576895755 363.17328603046354L1043.8550576895755 363.17328603046354L1045.6981781916093 365.3378810386658Q1044.455143434424 377.0609846969491 1038.218538014752 383.4047482853438Q1031.9605009613356 389.7270802399939 1021.3089789902812 389.7270802399939L1021.3089789902812 389.7270802399939Q1011.7504703402001 389.7270802399939 1004.5708730357669 385.0978473511653Q997.3912757313338 380.4686144623368 993.6193081922883 371.2101486846797Q989.8473406532429 361.95168290702276 989.8473406532429 347.9139628043251L989.8473406532429 347.9139628043251Q989.8473406532429 333.85481106788296 994.6908898795172 324.5320503889921Q999.5558707395361 315.1878580763568 1007.5070068587739 310.55862518752826Q1015.4581429780118 305.9293922986998 1024.7166087556689 305.9293922986998Z " fill="#263238" transform="matrix(0.8186411409810903,0,0,0.8186411409810903,0,20.367783826225022)"/></g></svg>